<?xml version="1.0" encoding="utf-8"?>
<?xml-stylesheet type="text/xsl" href="rss1.xsl"?>
<rss version="2.0" xmlns:atom="http://www.w3.org/2005/Atom" xmlns:content="http://purl.org/rss/1.0/modules/content/" xmlns:dc="http://purl.org/dc/elements/1.1/" xmlns:media="http://search.yahoo.com/mrss/">
<channel>
 <title>Getty</title>
 <link>http://www.gettyimg.com/</link>
 <atom:link href="http://www.gettyimg.com/" rel="self" type="application/rss+xml" />

 
                <item>
                <title><![CDATA[【PRORES HD】Lil Nas X ft. Jack Harlow - Industry Baby 2021 MASTER ProRes]]></title>
                <link><![CDATA[https://sharemania.us/threads/lil-nas-x-ft-jack-harlow-industry-baby-2021-master-prores.239518/]]></link>
                <description><![CDATA[<article>
<blockquote class="messageText SelectQuoteContainer ugc baseHtml">
<div style="padding-left: 30px"><div style="text-align: center"><b>Hello, I am giving you the Original ProRes Master of the music video (Industry Baby) by Lil Nas X ft. Jack Harlow, I have the master prores so I don't hesitate to share it with you, is possible that there are errors, if this is the case don't hesitate to tell me kindly and I will resolve the problem, I I posted several links which normally never expire but if one or more links break do not hesitate to let me know =)</b><br>
​</div><img src="https://i.postimg.cc/zBSs0z2K/Lil-Nas-X-ft-Jack-Harlow-Industry-Baby-mov-thumbs-2024-03-08-11-30-44.png" class="bbCodeImage LbImage" alt="[​IMG]" data-url="https://i.postimg.cc/zBSs0z2K/Lil-Nas-X-ft-Jack-Harlow-Industry-Baby-mov-thumbs-2024-03-08-11-30-44.png" style=""> <br>
<div style="text-align: center"><br>
<img src="styles/default/xenforo/smilies/red_heart-48.png" class="mceSmilie" alt=":love:" title="hearts    :love:">​</div>
<div class="ToggleTriggerAnchor bbCodeSpoilerContainer">
<button type="button" class="button bbCodeSpoilerButton ToggleTrigger Tooltip JsOnly" data-target="> .SpoilerTarget"><span>Spoiler: <span class="SpoilerTitle">MediaInfo</span></span></button>
<div class="SpoilerTarget bbCodeSpoilerText">Nas X ft. Jack Harlow - Industry Baby.mov<br>
Format : MPEG-4<br>
Format profile : QuickTime<br>
Codec ID : qt <br>
File size : 4.88 GiB<br>
Duration : 3mn 58s<br>
Overall bit rate : 176 Mbps<br>
Writing application : Lavf58.76.100<br>
Video<br>
ID : 1<br>
Format : Digital Video<br>
Codec ID : apch<br>
Codec ID/Info : ProRes 422 HQ<br>
Duration : 3mn 58s<br>
Bit rate mode : Variable<br>
Bit rate : 174 Mbps<br>
Width : 1 920 pixels<br>
Height : 1 080 pixels<br>
Display aspect ratio : 16:9<br>
Stream size : 4.84 GiB (99%)<br>
Audio<br>
ID : 2<br>
Format : PCM<br>
Format settings, Endianness : Little<br>
Format settings, Sign : Signed<br>
Codec ID : sowt<br>
Duration : 3mn 58s<br>
Bit rate mode : Constant<br>
Bit rate : 1 536 Kbps<br>
Channel(s) : 2 channels<br>
Sampling rate : 48.0 KHz<br>
Resolution : 16 bits<br>
Stream size : 43.7 MiB (1%)<br>
Language : English</div>
</div><div style="text-align: center"><img src="styles/default/xenforo/smilies/red_heart-48.png" class="mceSmilie" alt=":love:" title="hearts    :love:"><br>
<b><b><i>Use PCM-HC to watch the clip without re-encoding, enjoy ! <img src="styles/default/xenforo/smilies/exciting-48.png" class="mceSmilie" alt=":D" title="Big Grin    :D"></i></b></b>​</div></div><div style="text-align: center"><b><i><br>
Download:</i></b><br>
<div class="bbCodeBlock bbCodeVfcHH HiddenContent">
<div class="attribution type">Hidden Content:</div>
<blockquote>You must reply before you can see the hidden data contained here.</blockquote>
</div></div>
<div class="messageTextEndMarker">&nbsp;</div>
</blockquote>
</article>]]></description>
                <author><![CDATA[FrancoisStrangis]]></author>
                </item>

                
                <item>
                <title><![CDATA[【Requests】[REQ AUD] - IDEM- Martin garrix album 24 bit flac]]></title>
                <link><![CDATA[https://sharemania.us/threads/idem-martin-garrix-album-24-bit-flac.239519/]]></link>
                <description><![CDATA[<article>
<blockquote class="messageText SelectQuoteContainer ugc baseHtml">
<a href="https://www.qobuz.com/us-en/album/idem-martin-garrix/jyursv5u0ggmc" target="_blank" class="externalLink" rel="nofollow">https://www.qobuz.com/us-en/album/idem-martin-garrix/jyursv5u0ggmc</a>
<div class="messageTextEndMarker">&nbsp;</div>
</blockquote>
</article>]]></description>
                <author><![CDATA[Ytram]]></author>
                </item>

                </channel></rss>